# xmcd
#
# Track frame offsets:
#	150
#	12235
#	26212
#	44230
#	55725
#	67762
#	84500
#	99785
#	112292
#	128205
#	141345
#	154382
#	166960
#	185325
#	202017
#	219757
#	232962
#	251927
#
# Disc length: 3578
#
# Revision: 2
# Processed by: cddbd v1.5.1PL0 Copyright (c) Steve Scherf et al.
# Submitted via: CDex 1.40Release
# Normalized: r1:DSETVAR1,TDELIM( - )
#
DISCID=020df812
DTITLE=Various Artist - Country Music Gala
DYEAR=1900
DGENRE=Country
TTITLE0=Tammy Wynette - Stand By Your Man
TTITLE1=Ricky Skaggs - If That's The Way You Feel
TTITLE2=Karen Brooks and Johnny Cash - I Will Dance With You
TTITLE3=Freddy Fender - Before The Next Teardrop Falls
TTITLE4=Charlie Rich - The Most Beautiful Girl
TTITLE5=Johnny Cash - A Boy Named Sue
TTITLE6=Emmylou Harris - C'est La Vie (You Never Can Tell)
TTITLE7=Jimmy Lawton - What If I Said I Love You
TTITLE8=Willie Nelson - Always On My Mind
TTITLE9=Lynn Anderson - Rose Garden
TTITLE10=Marty Robbins - Devil Woman
TTITLE11=Frankie Lain - High Noon
TTITLE12=Don Williams - I Believe In You
TTITLE13=Carpenters - Jambalaya
TTITLE14=Linda Ronstadt - Blue Bayou
TTITLE15=Jimmy Lawton and Ine Masseurs - Somewhere Between
TTITLE16=Kris Kristofferson - Me And Bobby McGee
TTITLE17=Rita Coolidge - We're All Alone
EXTD=ID3G: 2
EXTT0=
EXTT1=
EXTT2=
EXTT3=
EXTT4=
EXTT5=
EXTT6=
EXTT7=
EXTT8=
EXTT9=
EXTT10=
EXTT11=
EXTT12=
EXTT13=
EXTT14=
EXTT15=
EXTT16=
EXTT17=
PLAYORDER=
